<?xml version="1.0" encoding="utf-8"?>
<!-- Generator: Adobe Illustrator 22.0.0, SVG Export Plug-In . SVG Version: 6.00 Build 0)  -->
<svg version="1.1" id="Layer_1" xmlns="http://www.w3.org/2000/svg" xmlns:xlink="http://www.w3.org/1999/xlink" x="0px" y="0px"
	 width="30px" height="30px" viewBox="0 0 30 30" enable-background="new 0 0 30 30" xml:space="preserve">
<g>
	<path d="M27.6,14.4h-24l9.9-12.3c0.2-0.2,0.2-0.7-0.1-0.8C13.1,1,12.7,1,12.5,1.3L1.9,14.6c-0.1,0.1-0.1,0.2-0.1,0.4l0,0l0,0l0,0
		c0,0.1,0.1,0.3,0.1,0.4l10.6,13.3c0.1,0.1,0.3,0.2,0.5,0.2c0.1,0,0.2-0.1,0.4-0.1c0.2-0.2,0.3-0.6,0.1-0.8L3.6,15.6h24
		c0.4,0,0.6-0.2,0.6-0.6S28,14.4,27.6,14.4z"/>
</g>
</svg>
